<svg xmlns="http://www.w3.org/2000/svg" xmlns:xlink="http://www.w3.org/1999/xlink" version="1.0" id="katman_1" x="0px" y="0px" style="enable-background:new 0 0 600 450;" xml:space="preserve" viewBox="67.1 147.8 466 155.12">
<style type="text/css">
	.st0{fill-rule:evenodd;clip-rule:evenodd;}
	.st1{fill-rule:evenodd;clip-rule:evenodd;fill:url(#path-2_00000181791653184123997420000003553074623251806869_);}
</style>
<g id="HP-Static---Int-Defualt-Country-Picker" transform="translate(-569.000000, -114.000000)">
	<g id="PriceSmart-ID" transform="translate(569.000000, 114.000000)">
		<g id="Logotype" transform="translate(0.000000, 52.121597)">
			<path id="Fill-1" class="st0" d="M67.1,249.3h9.4v-29.1c2.2,0.5,4.7,0.6,7.5,0.6c9.1,0,17.2-2.7,22.2-8c3.7-3.8,5.6-8.9,5.6-15.5     c0-6.5-2.4-11.7-6.3-15.2c-4.3-3.9-11.1-6-20.3-6c-7.5,0-13.4,0.6-18,1.4V249.3z M76.5,184.4c1.6-0.4,4.7-0.8,8.8-0.8     c10.3,0,17.1,4.6,17.1,14.2c0,10-6.9,15.5-18.2,15.5c-3.1,0-5.7-0.2-7.7-0.8V184.4z M117.6,249.3h9.4v-27.8     c0-1.6,0.2-3.1,0.4-4.4c1.3-7.1,5.2-13.1,11.9-13.1c1.3,0,2.3-0.1,3.2,0.1v-6.9c-0.9-0.2-1.6-0.3-2.7-0.3     c-6.3,0-11.2,3.5-13.6,10.5h-0.4l-0.3-10.2h-8.3c0.3,4.8,0.4,10.1,0.4,16.2V249.3z M148.6,249.3h9.5v-52.1h-9.5V249.3z      M206.1,240.2c-2.7,1.2-6.2,2.6-11.6,2.6c-10.3,0-18.1-7.4-18.1-19.5c0-10.9,6.5-19.7,18.4-19.7c5.2,0,8.7,1.2,11,2.5l2.2-7.3     c-2.6-1.3-7.5-2.7-13.1-2.7c-17,0-28,11.6-28,27.7c0,15.9,10.2,26.6,25.9,26.6c7,0,12.5-1.7,15-3L206.1,240.2z M255.3,225     c0.1-1,0.3-2.5,0.3-4.4c0-9.6-4.5-24.5-21.5-24.5c-15.2,0-24.4,12.4-24.4,28.1c0,15.7,9.6,26.3,25.6,26.3c8.3,0,14-1.7,17.3-3.2     l-1.6-6.8c-3.6,1.5-7.6,2.7-14.4,2.7c-9.5,0-17.6-5.3-17.9-18.1H255.3z M218.8,218.2c0.8-6.6,5-15.4,14.5-15.4     c10.7,0,13.2,9.4,13.1,15.4H218.8z M259.5,245.9c4.1,2.3,12.3,4.4,20.6,4.4c19.9,0,29.3-10.3,29.3-22.5c0-10.2-6-16.9-18.8-21.6     c-9.4-3.6-13.4-5.6-13.4-10.2c0-3.8,3.4-7,10.5-7c7.1,0,12.3,2,15.2,3.4l3.7-13.2c-4.3-1.9-10.3-3.7-18.5-3.7     c-17.1,0-27.4,9.5-27.4,21.8c0,10.5,7.9,17.2,19.9,21.4c8.7,3.1,12.2,5.7,12.2,10.2c0,4.7-4,7.9-11.5,7.9c-7,0-13.8-2.3-18.2-4.5     L259.5,245.9z M314.5,249.3h15.9v-30.7c0-1.3,0.1-2.8,0.6-4.1c1-2.7,3.4-5.9,7.6-5.9c5.2,0,7.5,4.5,7.5,11.2v29.5h15.9v-30.8     c0-1.3,0.2-3,0.6-4.2c1.1-3.1,3.8-5.7,7.5-5.7c5.3,0,7.7,4.4,7.7,12.1v28.6H394v-31c0-15.7-7.6-22.8-17.8-22.8     c-3.9,0-7.1,0.9-10,2.6c-2.5,1.5-4.8,3.7-6.8,6.3h-0.2c-2.3-5.5-7.6-8.9-14.4-8.9c-9,0-13.7,4.9-15.9,8.3h-0.3l-0.8-7.1h-13.8     c0.2,4.6,0.4,10.2,0.4,16.8V249.3z M461.6,249.3H478v-26.7c0-1.3,0.1-2.6,0.3-3.7c1.1-5.1,5.2-9.2,11.2-9.2c1.8,0,2.2-0.1,4.4,0     v-13.1c-1.2-0.2-1.9-0.2-3.4-0.2c-5.1,0-11.5,2.3-14.2,10h-0.4l-0.5-9.7h-14.1c0.2,4.5,0.4,9.6,0.4,17.3V249.3z M420.4,195.4     c7.4,0,12.9,2.9,16.1,7.5h0.2v-6.5h16.5v37.4c0,1,0,1.9,0,2.9l0,1.4c0.1,4.5,0.2,8.9,0.4,11.5h-14l-0.7-7.4h-0.2     c-3.7,6.3-9.8,8.6-15.9,8.6c-12.1,0-24.2-9.5-24.2-28.6C398.5,205.9,407.7,195.4,420.4,195.4z M515.3,181.6v15.1H527v12.1h-11.7     v19c0,6.3,1.5,9.3,6.5,9.3c2,0,3.7-0.2,4.8-0.4l0,0l0.1,12.4c-2.2,0.9-6,1.4-10.7,1.4c-5.3,0-9.7-1.8-12.3-4.5     c-3-3.1-4.5-8.2-4.5-15.6l0,0v-21.5h0v-12.1h0v-11.4L515.3,181.6z M426.7,208.1c-7.7,0-11.4,6.5-11.4,14.7c0,9.5,4.3,15,11.4,15     c4.8,0,8.6-3.5,9.7-7.8c0.2-0.9,0.3-1.8,0.3-2.9v-7.8c0-1.1-0.1-2.1-0.3-3C435.3,211.5,431.2,208.1,426.7,208.1z"/>
			<path id="Fill-6" class="st0" d="M526.5,180.4h-1.2v2.2h1.2c0.7,0,1.2-0.5,1.2-1.1S527.2,180.4,526.5,180.4z M527.7,186.6     l-1.5-2.9h-0.9v2.9h-1.4v-7.4h2.8c1.4,0,2.4,1,2.4,2.3c0,1-0.6,1.7-1.5,2l1.6,3.1H527.7z M526.3,177.4c-3.1,0-5.5,2.5-5.5,5.6     c0,3.1,2.4,5.6,5.5,5.6s5.5-2.5,5.5-5.6C531.7,179.8,529.3,177.4,526.3,177.4z M526.3,189.8c-3.8,0-6.8-3.1-6.8-6.8     c0-3.8,3.1-6.8,6.8-6.8c3.8,0,6.8,3.1,6.8,6.8C533.1,186.7,530.1,189.8,526.3,189.8L526.3,189.8z"/>
		</g>
		<g id="Sunburst" transform="translate(23.297102, 0.000000)">
			<g id="Clip-7">
				
					<radialGradient id="path-2_00000030481576502020921050000003226974221853066398_" cx="-17.6514" cy="454.2344" r="1.3172" gradientTransform="matrix(3.496205e-15 57.0974 57.0974 -3.496205e-15 -25805.4258 1205.3303)" gradientUnits="userSpaceOnUse">
					<stop offset="0" style="stop-color:#E84228"/>
					<stop offset="0.4775" style="stop-color:#DE3B23"/>
					<stop offset="1" style="stop-color:#650F2F"/>
				</radialGradient>
				
					<path id="path-2_00000088834231003707625720000015713703046930697394_" style="fill-rule:evenodd;clip-rule:evenodd;fill:url(#path-2_00000030481576502020921050000003226974221853066398_);" d="      M147.4,147.8c-0.5,0-1.1,0.4-1.8,1.3l-15.4,19.6l-15.4-19.6c-0.7-0.9-1.3-1.3-1.8-1.3c-0.7,0-1.1,0.8-1,2.4l0.7,25L88.2,170      c-2.6-0.6-3.3,0.6-1.5,2.6l16.6,18.7l-22,11.8c-2.4,1.3-2.1,2.6,0.5,3l24.6,3.6c0,0-9.2,23-9.3,23.2c-1.5,3.8,2.3,2.5,3.7,0.4      c5.2-7.6,13.6-13,22.7-14.7c-8.9-2.8-15.3-11.2-15.3-21c0-12.2,9.9-22,22-22c12.2,0,22,9.9,22,22c0,9.8-6.4,18.1-15.3,21      c9.1,1.7,17.5,7,22.7,14.7c1.4,2.1,5.3,3.4,3.7-0.4c-0.1-0.2-9.3-23.2-9.3-23.2l24.6-3.6c2.7-0.4,2.9-1.7,0.5-3l-22-11.8      l16.6-18.7c1.8-2,1.1-3.2-1.5-2.6l-24.5,5.1l0.7-25C148.4,148.6,148,147.8,147.4,147.8z"/>
			</g>
		</g>
	</g>
</g>
</svg>